<svg width="368" height="63" viewBox="0 0 368 63" fill="none" xmlns="http://www.w3.org/2000/svg">
<g clip-path="url(#clip0_13183_8712)">
<rect width="368" height="63" fill="#B8283B"/>
<g clip-path="url(#clip1_13183_8712)">
<rect width="394.992" height="117" fill="#F3052C"/>
<path d="M-3.08984 0H386.099V312.624C386.099 321.722 378.723 329.098 369.625 329.098H13.3838C4.28565 329.098 -3.08984 321.722 -3.08984 312.624V0Z" fill="white"/>
<path d="M-3.08984 0H386.099V312.624C386.099 321.722 378.723 329.098 369.625 329.098H13.3838C4.28565 329.098 -3.08984 321.722 -3.08984 312.624V0Z" fill="#EE0033"/>
<path d="M-1 0H370V403H-1V0Z" fill="url(#paint0_linear_13183_8712)"/>
<path d="M281.68 -25.6762L104.138 36.3049C56.2291 53.1529 31.4015 104.763 48.6635 151.577L57.2103 174.697L71.4409 213.271L131.521 375.971C131.521 375.971 148.996 281.811 249.597 246.475L367.064 205.605C414.973 188.757 439.801 137.147 422.539 90.3334L399.761 28.6392C382.457 -18.1745 329.59 -42.4833 281.68 -25.6762Z" fill="url(#paint1_linear_13183_8712)"/>
<path d="M265.75 42.926L149.672 83.4497C118.349 94.4651 102.116 128.208 113.402 158.815L118.99 173.931L128.294 199.151L167.575 305.526C167.575 305.526 179 243.963 244.774 220.86L321.574 194.139C352.898 183.124 369.13 149.381 357.844 118.774L342.952 78.4378C331.639 47.8307 297.073 31.9375 265.75 42.926Z" fill="url(#paint2_linear_13183_8712)"/>
</g>
<g filter="url(#filter0_f_13183_8712)">
<rect x="86.5859" y="47.007" width="45.8127" height="45.8127" rx="10" transform="rotate(-22 86.5859 47.007)" fill="#FF0F36"/>
<g clip-path="url(#clip2_13183_8712)">
<path d="M110.18 61.8261L108.893 62.3461L105.756 54.58L101.895 56.14L106.592 67.7671L111.74 65.6872L113.838 70.8792L117.699 69.3192L112.724 57.0047L108.863 58.5646L110.18 61.8261Z" fill="#FFB1B1"/>
<path d="M117.339 49.8984C114.501 51.0453 113.124 54.2878 114.271 57.1265L116.907 63.6495C118.054 66.4881 121.296 67.8645 124.135 66.7176C126.974 65.5707 128.35 62.3282 127.203 59.4896L125.625 55.5845L120.477 57.6645L122.037 61.5255L123.324 61.0056L123.342 61.0495C123.629 61.7592 123.285 62.5698 122.575 62.8565C121.865 63.1433 121.055 62.7992 120.768 62.0895L118.132 55.5665C117.846 54.8568 118.19 54.0462 118.899 53.7595C119.609 53.4728 120.42 53.8169 120.706 54.5265L121.244 55.8575L125.105 54.2975L124.568 52.9666C123.421 50.1279 120.178 48.7515 117.339 49.8984Z" fill="#FFB1B1"/>
<path d="M115.26 44.7527C112.845 45.7281 110.915 47.4441 109.676 49.7152L110.895 50.3797C111.978 48.3941 113.667 46.8933 115.78 46.0397C117.893 45.1861 120.15 45.0923 122.308 45.7685L122.723 44.4439C120.255 43.6705 117.674 43.7773 115.26 44.7527Z" fill="#FFB1B1"/>
<path d="M121.592 48.4555L122.029 47.138C120.166 46.5199 118.13 46.587 116.299 47.3271C114.467 48.0671 112.956 49.4325 112.045 51.1719L113.275 51.8161C114.044 50.3471 115.27 49.2399 116.819 48.6141C118.368 47.9883 120.018 47.9335 121.592 48.4555Z" fill="#FFB1B1"/>
</g>
</g>
<rect x="130.73" y="-3.50208" width="40.2294" height="40.2294" rx="10" transform="rotate(-22 130.73 -3.50208)" fill="#FF2B4D"/>
<g clip-path="url(#clip3_13183_8712)">
<path d="M164.291 7.62233C163.279 8.03136 162.221 8.27464 161.153 8.34393C160.628 8.37298 160.119 8.74667 159.954 9.14982L158.662 11.3046C156.041 11.0247 154.176 10.2336 152.176 8.55225L152.807 6.19103C153.018 5.69459 152.936 5.12699 152.588 4.70399C151.893 3.88338 151.333 2.95398 150.924 1.94117C150.628 1.20949 149.792 0.85474 149.061 1.15033L146.024 2.37724C145.293 2.67284 144.938 3.50857 145.233 4.24019C148.622 12.6265 158.201 16.6925 166.587 13.3042C167.319 13.0086 167.673 12.1729 167.378 11.4413L166.154 8.41306C165.859 7.6815 165.023 7.32676 164.291 7.62233Z" fill="#FFB1B1"/>
</g>
<g opacity="0.6">
<rect x="166.219" y="46.1143" width="29.0226" height="29.0226" rx="10" transform="rotate(-22 166.219 46.1143)" fill="#FF0F36"/>
<g clip-path="url(#clip4_13183_8712)">
<path d="M184.772 53.5459L190.702 45.4848C190.297 45.3252 189.846 45.3271 189.442 45.49L175.819 50.9939C175.416 51.1573 175.09 51.4692 174.909 51.8655L184.772 53.5459Z" fill="#FFB1B1"/>
<path d="M185.177 54.5472L174.763 52.7729C174.78 52.9253 174.818 53.0747 174.875 53.2169L177.875 60.6418C178.046 61.0609 178.375 61.3954 178.792 61.5723C179.209 61.7491 179.678 61.7539 180.098 61.5856L193.721 56.0816C194.14 55.9109 194.475 55.5812 194.652 55.1645C194.829 54.7479 194.833 54.2782 194.665 53.8581L191.665 46.4333C191.608 46.291 191.531 46.1573 191.438 46.0357L185.177 54.5472Z" fill="#FFB1B1"/>
</g>
</g>
</g>
<defs>
<filter id="filter0_f_13183_8712" x="86.7383" y="29.9972" width="59.334" height="59.3346" filterUnits="userSpaceOnUse" color-interpolation-filters="sRGB">
<feFlood flood-opacity="0" result="BackgroundImageFix"/>
<feBlend mode="normal" in="SourceGraphic" in2="BackgroundImageFix" result="shape"/>
<feGaussianBlur stdDeviation="1.43165" result="effect1_foregroundBlur_13183_8712"/>
</filter>
<linearGradient id="paint0_linear_13183_8712" x1="83.3997" y1="3.27947" x2="19.5344" y2="128.122" gradientUnits="userSpaceOnUse">
<stop stop-color="#F41D41"/>
<stop offset="1" stop-color="#FF002A"/>
</linearGradient>
<linearGradient id="paint1_linear_13183_8712" x1="322.584" y1="12.4794" x2="156.092" y2="259.123" gradientUnits="userSpaceOnUse">
<stop stop-color="#FF3549"/>
<stop offset="1" stop-color="#DB0016" stop-opacity="0"/>
</linearGradient>
<linearGradient id="paint2_linear_13183_8712" x1="292.493" y1="67.8724" x2="183.639" y2="229.13" gradientUnits="userSpaceOnUse">
<stop stop-color="#FF5162"/>
<stop offset="1" stop-color="#DB0016" stop-opacity="0"/>
</linearGradient>
<clipPath id="clip0_13183_8712">
<rect width="368" height="63" fill="white"/>
</clipPath>
<clipPath id="clip1_13183_8712">
<rect width="394.992" height="117" fill="white"/>
</clipPath>
<clipPath id="clip2_13183_8712">
<rect width="23.6929" height="23.6929" fill="white" transform="translate(99.8145 50.9949) rotate(-22)"/>
</clipPath>
<clipPath id="clip3_13183_8712">
<rect width="17.8343" height="17.8343" fill="white" transform="translate(144.697 2.91321) rotate(-22)"/>
</clipPath>
<clipPath id="clip4_13183_8712">
<rect width="18.1087" height="18.1087" fill="white" transform="translate(172.885 48.2892) rotate(-22)"/>
</clipPath>
</defs>
</svg>
